<svg xmlns="http://www.w3.org/2000/svg" width="300" height="151" viewBox="0 0 300 151" fill="none">
<rect width="300" height="150" transform="translate(0 0.5)" fill="black"/>
<mask id="mask0_1_2" style="mask-type:alpha" maskUnits="userSpaceOnUse" x="121" y="38" width="58" height="58">
<rect x="121" y="38" width="57.6" height="57.6" fill="#D9D9D9"/>
</mask>
<g mask="url(#mask0_1_2)">
<path d="M146.62 78.5L159.04 67.4C159.44 67.04 159.56 66.61 159.4 66.11C159.24 65.61 158.88 65.32 158.32 65.24L148.6 64.28L154.42 56.3C154.58 56.1 154.65 55.89 154.63 55.67C154.61 55.45 154.52 55.24 154.36 55.04C154.16 54.84 153.93 54.74 153.67 54.74C153.41 54.74 153.18 54.84 152.98 55.04L140.62 66.14C140.22 66.5 140.1 66.93 140.26 67.43C140.42 67.93 140.78 68.22 141.34 68.3L151.06 69.26L145.18 77.24C145.02 77.44 144.95 77.65 144.97 77.87C144.99 78.09 145.1 78.3 145.3 78.5C145.5 78.7 145.72 78.8 145.96 78.8C146.2 78.8 146.42 78.7 146.62 78.5ZM149.8 88.4C147.12 88.4 144.6 87.95 142.24 87.05C139.88 86.15 137.74 84.9 135.82 83.3L131.26 87.86C131.06 88.06 130.86 88.2 130.66 88.28C130.46 88.36 130.24 88.4 130 88.4C129.52 88.4 129.1 88.22 128.74 87.86C128.38 87.5 128.2 87.08 128.2 86.6C128.2 86.36 128.24 86.14 128.32 85.94C128.4 85.74 128.54 85.54 128.74 85.34L133.3 80.78C131.7 78.86 130.45 76.72 129.55 74.36C128.65 72 128.2 69.48 128.2 66.8C128.2 60.8 130.3 55.7 134.5 51.5C138.7 47.3 143.8 45.2 149.8 45.2H167.8C168.8 45.2 169.65 45.55 170.35 46.25C171.05 46.95 171.4 47.8 171.4 48.8V66.8C171.4 72.8 169.3 77.9 165.1 82.1C160.9 86.3 155.8 88.4 149.8 88.4Z" fill="url(#paint0_linear_1_2)"/>
</g>
<path d="M88.8816 108.744C87.9984 108.744 87.264 108.581 86.6784 108.254C86.1024 107.928 85.6656 107.472 85.368 106.886C85.0704 106.301 84.9072 105.619 84.8784 104.842C84.8688 104.448 84.864 104.026 84.864 103.574C84.864 103.123 84.8688 102.691 84.8784 102.278C84.9072 101.501 85.0704 100.819 85.368 100.234C85.6656 99.648 86.1024 99.192 86.6784 98.8656C87.264 98.5392 87.9984 98.376 88.8816 98.376C89.544 98.376 90.1248 98.4672 90.624 98.6496C91.1232 98.832 91.536 99.0768 91.8624 99.384C92.1984 99.6912 92.4528 100.037 92.6256 100.421C92.7984 100.795 92.8944 101.184 92.9136 101.587C92.9232 101.674 92.8944 101.746 92.8272 101.803C92.7696 101.861 92.6976 101.89 92.6112 101.89H91.8192C91.7328 101.89 91.656 101.866 91.5888 101.818C91.5312 101.77 91.488 101.683 91.4592 101.558C91.296 100.81 90.9888 100.296 90.5376 100.018C90.096 99.7392 89.5392 99.6 88.8672 99.6C88.0992 99.6 87.4896 99.8208 87.0384 100.262C86.5872 100.694 86.3424 101.39 86.304 102.35C86.2752 103.138 86.2752 103.944 86.304 104.77C86.3424 105.73 86.5872 106.43 87.0384 106.872C87.4896 107.304 88.0992 107.52 88.8672 107.52C89.5392 107.52 90.096 107.381 90.5376 107.102C90.9888 106.824 91.296 106.31 91.4592 105.562C91.488 105.437 91.5312 105.35 91.5888 105.302C91.656 105.254 91.7328 105.23 91.8192 105.23H92.6112C92.6976 105.23 92.7696 105.259 92.8272 105.317C92.8944 105.374 92.9232 105.446 92.9136 105.533C92.8944 105.936 92.7984 106.33 92.6256 106.714C92.4528 107.088 92.1984 107.429 91.8624 107.736C91.536 108.043 91.1232 108.288 90.624 108.47C90.1248 108.653 89.544 108.744 88.8816 108.744ZM95.0018 108.6C94.9058 108.6 94.8242 108.571 94.757 108.514C94.6994 108.446 94.6706 108.365 94.6706 108.269V98.7072C94.6706 98.6112 94.6994 98.5344 94.757 98.4768C94.8242 98.4096 94.9058 98.376 95.0018 98.376H95.7218C95.8274 98.376 95.909 98.4096 95.9666 98.4768C96.0242 98.5344 96.053 98.6112 96.053 98.7072V102.062C96.3122 101.736 96.629 101.472 97.0034 101.27C97.3778 101.069 97.853 100.968 98.429 100.968C99.053 100.968 99.581 101.107 100.013 101.386C100.455 101.654 100.786 102.034 101.007 102.523C101.237 103.003 101.352 103.565 101.352 104.208V108.269C101.352 108.365 101.323 108.446 101.266 108.514C101.208 108.571 101.127 108.6 101.021 108.6H100.301C100.205 108.6 100.123 108.571 100.056 108.514C99.9986 108.446 99.9698 108.365 99.9698 108.269V104.28C99.9698 103.608 99.8066 103.085 99.4802 102.71C99.1538 102.326 98.6738 102.134 98.0402 102.134C97.445 102.134 96.965 102.326 96.6002 102.71C96.2354 103.085 96.053 103.608 96.053 104.28V108.269C96.053 108.365 96.0242 108.446 95.9666 108.514C95.909 108.571 95.8274 108.6 95.7218 108.6H95.0018ZM103.762 108.6C103.666 108.6 103.585 108.571 103.518 108.514C103.46 108.446 103.431 108.365 103.431 108.269V101.458C103.431 101.362 103.46 101.28 103.518 101.213C103.585 101.146 103.666 101.112 103.762 101.112H104.425C104.521 101.112 104.602 101.146 104.67 101.213C104.737 101.28 104.77 101.362 104.77 101.458V102.091C104.962 101.765 105.226 101.52 105.562 101.357C105.898 101.194 106.302 101.112 106.772 101.112H107.348C107.444 101.112 107.521 101.146 107.578 101.213C107.636 101.27 107.665 101.347 107.665 101.443V102.034C107.665 102.13 107.636 102.206 107.578 102.264C107.521 102.322 107.444 102.35 107.348 102.35H106.484C105.966 102.35 105.558 102.504 105.26 102.811C104.962 103.109 104.814 103.517 104.814 104.035V108.269C104.814 108.365 104.78 108.446 104.713 108.514C104.646 108.571 104.564 108.6 104.468 108.6H103.762ZM111.828 108.744C111.099 108.744 110.489 108.605 109.999 108.326C109.51 108.048 109.135 107.664 108.876 107.174C108.617 106.675 108.473 106.109 108.444 105.475C108.435 105.312 108.43 105.106 108.43 104.856C108.43 104.597 108.435 104.39 108.444 104.237C108.473 103.594 108.617 103.027 108.876 102.538C109.145 102.048 109.524 101.664 110.014 101.386C110.503 101.107 111.108 100.968 111.828 100.968C112.548 100.968 113.153 101.107 113.643 101.386C114.132 101.664 114.507 102.048 114.766 102.538C115.035 103.027 115.183 103.594 115.212 104.237C115.222 104.39 115.227 104.597 115.227 104.856C115.227 105.106 115.222 105.312 115.212 105.475C115.183 106.109 115.039 106.675 114.78 107.174C114.521 107.664 114.147 108.048 113.657 108.326C113.167 108.605 112.558 108.744 111.828 108.744ZM111.828 107.635C112.423 107.635 112.899 107.448 113.254 107.074C113.609 106.69 113.801 106.133 113.83 105.403C113.839 105.259 113.844 105.077 113.844 104.856C113.844 104.635 113.839 104.453 113.83 104.309C113.801 103.579 113.609 103.027 113.254 102.653C112.899 102.269 112.423 102.077 111.828 102.077C111.233 102.077 110.753 102.269 110.388 102.653C110.033 103.027 109.846 103.579 109.827 104.309C109.817 104.453 109.812 104.635 109.812 104.856C109.812 105.077 109.817 105.259 109.827 105.403C109.846 106.133 110.033 106.69 110.388 107.074C110.753 107.448 111.233 107.635 111.828 107.635ZM117.361 108.6C117.265 108.6 117.183 108.571 117.116 108.514C117.058 108.446 117.03 108.365 117.03 108.269V101.443C117.03 101.347 117.058 101.27 117.116 101.213C117.183 101.146 117.265 101.112 117.361 101.112H118.038C118.134 101.112 118.21 101.146 118.268 101.213C118.335 101.27 118.369 101.347 118.369 101.443V102.077C118.618 101.75 118.93 101.486 119.305 101.285C119.689 101.074 120.178 100.968 120.774 100.968C121.398 100.968 121.926 101.107 122.358 101.386C122.799 101.654 123.13 102.034 123.351 102.523C123.572 103.003 123.682 103.565 123.682 104.208V108.269C123.682 108.365 123.654 108.446 123.596 108.514C123.538 108.571 123.462 108.6 123.366 108.6H122.646C122.55 108.6 122.468 108.571 122.401 108.514C122.343 108.446 122.314 108.365 122.314 108.269V104.28C122.314 103.608 122.151 103.085 121.825 102.71C121.498 102.326 121.018 102.134 120.385 102.134C119.79 102.134 119.31 102.326 118.945 102.71C118.59 103.085 118.412 103.608 118.412 104.28V108.269C118.412 108.365 118.378 108.446 118.311 108.514C118.254 108.571 118.177 108.6 118.081 108.6H117.361ZM128.83 108.744C128.1 108.744 127.49 108.605 127.001 108.326C126.511 108.048 126.137 107.664 125.878 107.174C125.618 106.675 125.474 106.109 125.446 105.475C125.436 105.312 125.431 105.106 125.431 104.856C125.431 104.597 125.436 104.39 125.446 104.237C125.474 103.594 125.618 103.027 125.878 102.538C126.146 102.048 126.526 101.664 127.015 101.386C127.505 101.107 128.11 100.968 128.83 100.968C129.55 100.968 130.154 101.107 130.644 101.386C131.134 101.664 131.508 102.048 131.767 102.538C132.036 103.027 132.185 103.594 132.214 104.237C132.223 104.39 132.228 104.597 132.228 104.856C132.228 105.106 132.223 105.312 132.214 105.475C132.185 106.109 132.041 106.675 131.782 107.174C131.522 107.664 131.148 108.048 130.658 108.326C130.169 108.605 129.559 108.744 128.83 108.744ZM128.83 107.635C129.425 107.635 129.9 107.448 130.255 107.074C130.61 106.69 130.802 106.133 130.831 105.403C130.841 105.259 130.846 105.077 130.846 104.856C130.846 104.635 130.841 104.453 130.831 104.309C130.802 103.579 130.61 103.027 130.255 102.653C129.9 102.269 129.425 102.077 128.83 102.077C128.234 102.077 127.754 102.269 127.39 102.653C127.034 103.027 126.847 103.579 126.828 104.309C126.818 104.453 126.814 104.635 126.814 104.856C126.814 105.077 126.818 105.259 126.828 105.403C126.847 106.133 127.034 106.69 127.39 107.074C127.754 107.448 128.234 107.635 128.83 107.635ZM136.623 108.744C136.086 108.744 135.625 108.677 135.241 108.542C134.857 108.408 134.545 108.245 134.305 108.053C134.065 107.861 133.882 107.669 133.758 107.477C133.642 107.285 133.58 107.131 133.57 107.016C133.561 106.91 133.594 106.829 133.671 106.771C133.748 106.714 133.825 106.685 133.902 106.685H134.535C134.593 106.685 134.636 106.694 134.665 106.714C134.703 106.723 134.751 106.762 134.809 106.829C134.934 106.963 135.073 107.098 135.226 107.232C135.38 107.366 135.567 107.477 135.788 107.563C136.018 107.65 136.302 107.693 136.638 107.693C137.127 107.693 137.53 107.602 137.847 107.419C138.164 107.227 138.322 106.949 138.322 106.584C138.322 106.344 138.255 106.152 138.121 106.008C137.996 105.864 137.766 105.734 137.43 105.619C137.103 105.504 136.652 105.384 136.076 105.259C135.5 105.125 135.044 104.962 134.708 104.77C134.372 104.568 134.132 104.333 133.988 104.064C133.844 103.786 133.772 103.474 133.772 103.128C133.772 102.773 133.878 102.432 134.089 102.106C134.3 101.77 134.607 101.496 135.01 101.285C135.423 101.074 135.937 100.968 136.551 100.968C137.05 100.968 137.478 101.03 137.833 101.155C138.188 101.28 138.481 101.438 138.711 101.63C138.942 101.813 139.114 101.995 139.23 102.178C139.345 102.36 139.407 102.514 139.417 102.638C139.426 102.734 139.398 102.816 139.33 102.883C139.263 102.941 139.186 102.97 139.1 102.97H138.495C138.428 102.97 138.37 102.955 138.322 102.926C138.284 102.898 138.246 102.864 138.207 102.826C138.111 102.701 137.996 102.576 137.862 102.451C137.737 102.326 137.569 102.226 137.358 102.149C137.156 102.062 136.887 102.019 136.551 102.019C136.071 102.019 135.711 102.12 135.471 102.322C135.231 102.523 135.111 102.778 135.111 103.085C135.111 103.267 135.164 103.43 135.27 103.574C135.375 103.718 135.577 103.848 135.874 103.963C136.172 104.078 136.614 104.203 137.199 104.338C137.833 104.462 138.332 104.63 138.697 104.842C139.062 105.053 139.321 105.298 139.474 105.576C139.628 105.854 139.705 106.176 139.705 106.541C139.705 106.944 139.585 107.314 139.345 107.65C139.114 107.986 138.769 108.254 138.308 108.456C137.857 108.648 137.295 108.744 136.623 108.744ZM141.89 108.6C141.785 108.6 141.703 108.571 141.645 108.514C141.588 108.446 141.559 108.365 141.559 108.269V98.8656C141.559 98.76 141.588 98.6784 141.645 98.6208C141.703 98.5536 141.785 98.52 141.89 98.52H145.548C146.258 98.52 146.873 98.6352 147.391 98.8656C147.919 99.096 148.327 99.4416 148.615 99.9024C148.903 100.354 149.047 100.92 149.047 101.602C149.047 102.283 148.903 102.85 148.615 103.301C148.327 103.752 147.919 104.093 147.391 104.323C146.873 104.554 146.258 104.669 145.548 104.669H142.999V108.269C142.999 108.365 142.965 108.446 142.898 108.514C142.841 108.571 142.759 108.6 142.653 108.6H141.89ZM142.985 103.459H145.476C146.186 103.459 146.719 103.301 147.074 102.984C147.429 102.667 147.607 102.206 147.607 101.602C147.607 101.006 147.434 100.546 147.089 100.219C146.743 99.8928 146.205 99.7296 145.476 99.7296H142.985V103.459ZM153.58 108.744C152.85 108.744 152.24 108.605 151.751 108.326C151.261 108.048 150.887 107.664 150.628 107.174C150.368 106.675 150.224 106.109 150.196 105.475C150.186 105.312 150.181 105.106 150.181 104.856C150.181 104.597 150.186 104.39 150.196 104.237C150.224 103.594 150.368 103.027 150.628 102.538C150.896 102.048 151.276 101.664 151.765 101.386C152.255 101.107 152.86 100.968 153.58 100.968C154.3 100.968 154.904 101.107 155.394 101.386C155.884 101.664 156.258 102.048 156.517 102.538C156.786 103.027 156.935 103.594 156.964 104.237C156.973 104.39 156.978 104.597 156.978 104.856C156.978 105.106 156.973 105.312 156.964 105.475C156.935 106.109 156.791 106.675 156.532 107.174C156.272 107.664 155.898 108.048 155.408 108.326C154.919 108.605 154.309 108.744 153.58 108.744ZM153.58 107.635C154.175 107.635 154.65 107.448 155.005 107.074C155.36 106.69 155.552 106.133 155.581 105.403C155.591 105.259 155.596 105.077 155.596 104.856C155.596 104.635 155.591 104.453 155.581 104.309C155.552 103.579 155.36 103.027 155.005 102.653C154.65 102.269 154.175 102.077 153.58 102.077C152.984 102.077 152.504 102.269 152.14 102.653C151.784 103.027 151.597 103.579 151.578 104.309C151.568 104.453 151.564 104.635 151.564 104.856C151.564 105.077 151.568 105.259 151.578 105.403C151.597 106.133 151.784 106.69 152.14 107.074C152.504 107.448 152.984 107.635 153.58 107.635ZM160.572 108.6C160.447 108.6 160.351 108.571 160.284 108.514C160.216 108.446 160.159 108.355 160.111 108.24L158.066 101.558C158.047 101.51 158.037 101.462 158.037 101.414C158.037 101.328 158.066 101.256 158.124 101.198C158.191 101.141 158.263 101.112 158.34 101.112H158.973C159.079 101.112 159.16 101.141 159.218 101.198C159.276 101.256 159.314 101.309 159.333 101.357L160.932 106.786L162.645 101.414C162.664 101.347 162.703 101.28 162.76 101.213C162.828 101.146 162.924 101.112 163.048 101.112H163.538C163.663 101.112 163.759 101.146 163.826 101.213C163.893 101.28 163.932 101.347 163.941 101.414L165.655 106.786L167.253 101.357C167.263 101.309 167.296 101.256 167.354 101.198C167.412 101.141 167.493 101.112 167.599 101.112H168.232C168.319 101.112 168.391 101.141 168.448 101.198C168.506 101.256 168.535 101.328 168.535 101.414C168.535 101.462 168.525 101.51 168.506 101.558L166.461 108.24C166.432 108.355 166.38 108.446 166.303 108.514C166.236 108.571 166.135 108.6 166 108.6H165.439C165.314 108.6 165.208 108.571 165.122 108.514C165.045 108.446 164.992 108.355 164.964 108.24L163.293 103.085L161.623 108.24C161.584 108.355 161.527 108.446 161.45 108.514C161.373 108.571 161.268 108.6 161.133 108.6H160.572ZM172.914 108.744C171.925 108.744 171.138 108.442 170.552 107.837C169.966 107.222 169.645 106.387 169.587 105.331C169.578 105.206 169.573 105.048 169.573 104.856C169.573 104.654 169.578 104.491 169.587 104.366C169.626 103.685 169.784 103.09 170.062 102.581C170.341 102.062 170.72 101.664 171.2 101.386C171.69 101.107 172.261 100.968 172.914 100.968C173.643 100.968 174.253 101.122 174.742 101.429C175.242 101.736 175.621 102.173 175.88 102.739C176.139 103.306 176.269 103.968 176.269 104.726V104.971C176.269 105.077 176.235 105.158 176.168 105.216C176.11 105.274 176.034 105.302 175.938 105.302H170.955C170.955 105.312 170.955 105.331 170.955 105.36C170.955 105.389 170.955 105.413 170.955 105.432C170.974 105.826 171.061 106.195 171.214 106.541C171.368 106.877 171.589 107.15 171.877 107.362C172.165 107.573 172.51 107.678 172.914 107.678C173.259 107.678 173.547 107.626 173.778 107.52C174.008 107.414 174.195 107.299 174.339 107.174C174.483 107.04 174.579 106.939 174.627 106.872C174.714 106.747 174.781 106.675 174.829 106.656C174.877 106.627 174.954 106.613 175.059 106.613H175.75C175.846 106.613 175.923 106.642 175.981 106.699C176.048 106.747 176.077 106.819 176.067 106.915C176.058 107.059 175.981 107.237 175.837 107.448C175.693 107.65 175.486 107.851 175.218 108.053C174.949 108.254 174.622 108.422 174.238 108.557C173.854 108.682 173.413 108.744 172.914 108.744ZM170.955 104.309H174.901V104.266C174.901 103.834 174.819 103.45 174.656 103.114C174.502 102.778 174.277 102.514 173.979 102.322C173.682 102.12 173.326 102.019 172.914 102.019C172.501 102.019 172.146 102.12 171.848 102.322C171.56 102.514 171.339 102.778 171.186 103.114C171.032 103.45 170.955 103.834 170.955 104.266V104.309ZM178.322 108.6C178.226 108.6 178.144 108.571 178.077 108.514C178.019 108.446 177.991 108.365 177.991 108.269V101.458C177.991 101.362 178.019 101.28 178.077 101.213C178.144 101.146 178.226 101.112 178.322 101.112H178.984C179.08 101.112 179.162 101.146 179.229 101.213C179.296 101.28 179.33 101.362 179.33 101.458V102.091C179.522 101.765 179.786 101.52 180.122 101.357C180.458 101.194 180.861 101.112 181.331 101.112H181.907C182.003 101.112 182.08 101.146 182.138 101.213C182.195 101.27 182.224 101.347 182.224 101.443V102.034C182.224 102.13 182.195 102.206 182.138 102.264C182.08 102.322 182.003 102.35 181.907 102.35H181.043C180.525 102.35 180.117 102.504 179.819 102.811C179.522 103.109 179.373 103.517 179.373 104.035V108.269C179.373 108.365 179.339 108.446 179.272 108.514C179.205 108.571 179.123 108.6 179.027 108.6H178.322Z" fill="url(#paint1_linear_1_2)"/>
<path d="M189.442 108.6C189.298 108.6 189.183 108.566 189.096 108.499C189.019 108.432 188.957 108.341 188.909 108.226L185.698 98.9664C185.679 98.9088 185.669 98.856 185.669 98.808C185.669 98.7312 185.698 98.664 185.755 98.6064C185.813 98.5488 185.88 98.52 185.957 98.52H186.706C186.821 98.52 186.907 98.5536 186.965 98.6208C187.032 98.6784 187.071 98.7312 187.08 98.7792L189.903 106.944L192.725 98.7792C192.744 98.7312 192.783 98.6784 192.84 98.6208C192.898 98.5536 192.984 98.52 193.099 98.52H193.848C193.925 98.52 193.992 98.5488 194.05 98.6064C194.117 98.664 194.151 98.7312 194.151 98.808C194.151 98.856 194.141 98.9088 194.122 98.9664L190.896 108.226C190.858 108.341 190.795 108.432 190.709 108.499C190.632 108.566 190.522 108.6 190.378 108.6H189.442ZM195.456 108.6C195.36 108.6 195.278 108.571 195.211 108.514C195.153 108.446 195.124 108.365 195.124 108.269V107.808C195.124 107.722 195.148 107.626 195.196 107.52C195.244 107.414 195.34 107.299 195.484 107.174L198.537 104.122C199.027 103.709 199.411 103.358 199.689 103.07C199.977 102.773 200.179 102.49 200.294 102.221C200.419 101.952 200.481 101.674 200.481 101.386C200.481 100.838 200.328 100.406 200.02 100.09C199.713 99.7632 199.257 99.6 198.652 99.6C198.268 99.6 197.937 99.6816 197.659 99.8448C197.38 99.9984 197.16 100.214 196.996 100.493C196.843 100.762 196.742 101.069 196.694 101.414C196.675 101.539 196.622 101.626 196.536 101.674C196.459 101.722 196.387 101.746 196.32 101.746H195.571C195.484 101.746 195.412 101.722 195.355 101.674C195.297 101.616 195.268 101.549 195.268 101.472C195.278 101.107 195.355 100.742 195.499 100.378C195.643 100.003 195.854 99.6672 196.132 99.3696C196.42 99.072 196.771 98.832 197.184 98.6496C197.606 98.4576 198.096 98.3616 198.652 98.3616C199.411 98.3616 200.03 98.5008 200.51 98.7792C201 99.048 201.36 99.408 201.59 99.8592C201.82 100.31 201.936 100.805 201.936 101.342C201.936 101.765 201.864 102.154 201.72 102.509C201.576 102.854 201.364 103.195 201.086 103.531C200.817 103.858 200.481 104.194 200.078 104.539L197.313 107.347H201.806C201.912 107.347 201.993 107.376 202.051 107.434C202.118 107.491 202.152 107.573 202.152 107.678V108.269C202.152 108.365 202.118 108.446 202.051 108.514C201.993 108.571 201.912 108.6 201.806 108.6H195.456ZM204.166 108.6C204.07 108.6 203.989 108.571 203.922 108.514C203.864 108.446 203.835 108.365 203.835 108.269V107.232C203.835 107.136 203.864 107.059 203.922 107.002C203.989 106.934 204.07 106.901 204.166 106.901H205.203C205.299 106.901 205.376 106.934 205.434 107.002C205.501 107.059 205.534 107.136 205.534 107.232V108.269C205.534 108.365 205.501 108.446 205.434 108.514C205.376 108.571 205.299 108.6 205.203 108.6H204.166ZM210.852 108.744C210.19 108.744 209.628 108.643 209.168 108.442C208.716 108.23 208.347 107.942 208.059 107.578C207.771 107.213 207.56 106.795 207.425 106.325C207.3 105.854 207.228 105.355 207.209 104.827C207.2 104.568 207.19 104.294 207.18 104.006C207.18 103.718 207.18 103.43 207.18 103.142C207.19 102.845 207.2 102.562 207.209 102.293C207.219 101.765 207.291 101.266 207.425 100.795C207.569 100.315 207.78 99.8976 208.059 99.5424C208.347 99.1776 208.721 98.8944 209.182 98.6928C209.643 98.4816 210.2 98.376 210.852 98.376C211.515 98.376 212.072 98.4816 212.523 98.6928C212.984 98.8944 213.358 99.1776 213.646 99.5424C213.934 99.8976 214.145 100.315 214.28 100.795C214.424 101.266 214.5 101.765 214.51 102.293C214.52 102.562 214.524 102.845 214.524 103.142C214.534 103.43 214.534 103.718 214.524 104.006C214.524 104.294 214.52 104.568 214.51 104.827C214.5 105.355 214.424 105.854 214.28 106.325C214.145 106.795 213.934 107.213 213.646 107.578C213.368 107.942 212.998 108.23 212.537 108.442C212.086 108.643 211.524 108.744 210.852 108.744ZM210.852 107.52C211.601 107.52 212.153 107.275 212.508 106.786C212.873 106.286 213.06 105.61 213.07 104.755C213.089 104.477 213.099 104.208 213.099 103.949C213.099 103.68 213.099 103.416 213.099 103.157C213.099 102.888 213.089 102.624 213.07 102.365C213.06 101.53 212.873 100.862 212.508 100.363C212.153 99.8544 211.601 99.6 210.852 99.6C210.113 99.6 209.561 99.8544 209.196 100.363C208.841 100.862 208.654 101.53 208.635 102.365C208.635 102.624 208.63 102.888 208.62 103.157C208.62 103.416 208.62 103.68 208.62 103.949C208.63 104.208 208.635 104.477 208.635 104.755C208.654 105.61 208.846 106.286 209.211 106.786C209.576 107.275 210.123 107.52 210.852 107.52Z" fill="url(#paint2_linear_1_2)"/>
<defs>
<linearGradient id="paint0_linear_1_2" x1="149.8" y1="45.2" x2="149.8" y2="88.4" gradientUnits="userSpaceOnUse">
<stop stop-color="#A8E063"/>
<stop offset="1" stop-color="#56AB2F"/>
</linearGradient>
<linearGradient id="paint1_linear_1_2" x1="150" y1="95.6" x2="150" y2="112.6" gradientUnits="userSpaceOnUse">
<stop stop-color="#A8E063"/>
<stop offset="1" stop-color="#56AB2F"/>
</linearGradient>
<linearGradient id="paint2_linear_1_2" x1="84" y1="104.1" x2="216" y2="104.1" gradientUnits="userSpaceOnUse">
<stop stop-color="#D9D9D9"/>
<stop offset="1" stop-color="#737373"/>
</linearGradient>
</defs>
</svg>
