<svg width="250" height="125" viewBox="0 0 250 125" fill="none" xmlns="http://www.w3.org/2000/svg">
<rect width="250" height="125" fill="black"/>
<mask id="mask0_1_2" style="mask-type:alpha" maskUnits="userSpaceOnUse" x="99" y="32" width="48" height="48">
<rect x="99" y="32" width="48" height="48" fill="#D9D9D9"/>
</mask>
<g mask="url(#mask0_1_2)">
<path d="M120.35 65.75L130.7 56.5C131.033 56.2 131.133 55.8417 131 55.425C130.867 55.0083 130.567 54.7667 130.1 54.7L122 53.9L126.85 47.25C126.983 47.0833 127.042 46.9083 127.025 46.725C127.008 46.5417 126.933 46.3667 126.8 46.2C126.633 46.0333 126.442 45.95 126.225 45.95C126.008 45.95 125.817 46.0333 125.65 46.2L115.35 55.45C115.017 55.75 114.917 56.1083 115.05 56.525C115.183 56.9417 115.483 57.1833 115.95 57.25L124.05 58.05L119.15 64.7C119.017 64.8667 118.958 65.0417 118.975 65.225C118.992 65.4083 119.083 65.5833 119.25 65.75C119.417 65.9167 119.6 66 119.8 66C120 66 120.183 65.9167 120.35 65.75ZM123 74C120.767 74 118.667 73.625 116.7 72.875C114.733 72.125 112.95 71.0833 111.35 69.75L107.55 73.55C107.383 73.7167 107.217 73.8333 107.05 73.9C106.883 73.9667 106.7 74 106.5 74C106.1 74 105.75 73.85 105.45 73.55C105.15 73.25 105 72.9 105 72.5C105 72.3 105.033 72.1167 105.1 71.95C105.167 71.7833 105.283 71.6167 105.45 71.45L109.25 67.65C107.917 66.05 106.875 64.2667 106.125 62.3C105.375 60.3333 105 58.2333 105 56C105 51 106.75 46.75 110.25 43.25C113.75 39.75 118 38 123 38H138C138.833 38 139.542 38.2917 140.125 38.875C140.708 39.4583 141 40.1667 141 41V56C141 61 139.25 65.25 135.75 68.75C132.25 72.25 128 74 123 74Z" fill="url(#paint0_linear_1_2)"/>
</g>
<path d="M88.068 91.12C87.332 91.12 86.72 90.984 86.232 90.712C85.752 90.44 85.388 90.06 85.14 89.572C84.892 89.084 84.756 88.516 84.732 87.868C84.724 87.54 84.72 87.188 84.72 86.812C84.72 86.436 84.724 86.076 84.732 85.732C84.756 85.084 84.892 84.516 85.14 84.028C85.388 83.54 85.752 83.16 86.232 82.888C86.72 82.616 87.332 82.48 88.068 82.48C88.62 82.48 89.104 82.556 89.52 82.708C89.936 82.86 90.28 83.064 90.552 83.32C90.832 83.576 91.044 83.864 91.188 84.184C91.332 84.496 91.412 84.82 91.428 85.156C91.436 85.228 91.412 85.288 91.356 85.336C91.308 85.384 91.248 85.408 91.176 85.408H90.516C90.444 85.408 90.38 85.388 90.324 85.348C90.276 85.308 90.24 85.236 90.216 85.132C90.08 84.508 89.824 84.08 89.448 83.848C89.08 83.616 88.616 83.5 88.056 83.5C87.416 83.5 86.908 83.684 86.532 84.052C86.156 84.412 85.952 84.992 85.92 85.792C85.896 86.448 85.896 87.12 85.92 87.808C85.952 88.608 86.156 89.192 86.532 89.56C86.908 89.92 87.416 90.1 88.056 90.1C88.616 90.1 89.08 89.984 89.448 89.752C89.824 89.52 90.08 89.092 90.216 88.468C90.24 88.364 90.276 88.292 90.324 88.252C90.38 88.212 90.444 88.192 90.516 88.192H91.176C91.248 88.192 91.308 88.216 91.356 88.264C91.412 88.312 91.436 88.372 91.428 88.444C91.412 88.78 91.332 89.108 91.188 89.428C91.044 89.74 90.832 90.024 90.552 90.28C90.28 90.536 89.936 90.74 89.52 90.892C89.104 91.044 88.62 91.12 88.068 91.12ZM93.1682 91C93.0882 91 93.0202 90.976 92.9642 90.928C92.9162 90.872 92.8922 90.804 92.8922 90.724V82.756C92.8922 82.676 92.9162 82.612 92.9642 82.564C93.0202 82.508 93.0882 82.48 93.1682 82.48H93.7682C93.8562 82.48 93.9242 82.508 93.9722 82.564C94.0202 82.612 94.0442 82.676 94.0442 82.756V85.552C94.2602 85.28 94.5242 85.06 94.8362 84.892C95.1482 84.724 95.5442 84.64 96.0242 84.64C96.5442 84.64 96.9842 84.756 97.3442 84.988C97.7122 85.212 97.9882 85.528 98.1722 85.936C98.3642 86.336 98.4602 86.804 98.4602 87.34V90.724C98.4602 90.804 98.4362 90.872 98.3882 90.928C98.3402 90.976 98.2722 91 98.1842 91H97.5842C97.5042 91 97.4362 90.976 97.3802 90.928C97.3322 90.872 97.3082 90.804 97.3082 90.724V87.4C97.3082 86.84 97.1722 86.404 96.9002 86.092C96.6282 85.772 96.2282 85.612 95.7002 85.612C95.2042 85.612 94.8042 85.772 94.5002 86.092C94.1962 86.404 94.0442 86.84 94.0442 87.4V90.724C94.0442 90.804 94.0202 90.872 93.9722 90.928C93.9242 90.976 93.8562 91 93.7682 91H93.1682ZM100.469 91C100.389 91 100.321 90.976 100.265 90.928C100.217 90.872 100.193 90.804 100.193 90.724V85.048C100.193 84.968 100.217 84.9 100.265 84.844C100.321 84.788 100.389 84.76 100.469 84.76H101.021C101.101 84.76 101.169 84.788 101.225 84.844C101.281 84.9 101.309 84.968 101.309 85.048V85.576C101.469 85.304 101.689 85.1 101.969 84.964C102.249 84.828 102.585 84.76 102.977 84.76H103.457C103.537 84.76 103.601 84.788 103.649 84.844C103.697 84.892 103.721 84.956 103.721 85.036V85.528C103.721 85.608 103.697 85.672 103.649 85.72C103.601 85.768 103.537 85.792 103.457 85.792H102.737C102.305 85.792 101.965 85.92 101.717 86.176C101.469 86.424 101.345 86.764 101.345 87.196V90.724C101.345 90.804 101.317 90.872 101.261 90.928C101.205 90.976 101.137 91 101.057 91H100.469ZM107.19 91.12C106.582 91.12 106.074 91.004 105.666 90.772C105.258 90.54 104.946 90.22 104.73 89.812C104.514 89.396 104.394 88.924 104.37 88.396C104.362 88.26 104.358 88.088 104.358 87.88C104.358 87.664 104.362 87.492 104.37 87.364C104.394 86.828 104.514 86.356 104.73 85.948C104.954 85.54 105.27 85.22 105.678 84.988C106.086 84.756 106.59 84.64 107.19 84.64C107.79 84.64 108.294 84.756 108.702 84.988C109.11 85.22 109.422 85.54 109.638 85.948C109.862 86.356 109.986 86.828 110.01 87.364C110.018 87.492 110.022 87.664 110.022 87.88C110.022 88.088 110.018 88.26 110.01 88.396C109.986 88.924 109.866 89.396 109.65 89.812C109.434 90.22 109.122 90.54 108.714 90.772C108.306 91.004 107.798 91.12 107.19 91.12ZM107.19 90.196C107.686 90.196 108.082 90.04 108.378 89.728C108.674 89.408 108.834 88.944 108.858 88.336C108.866 88.216 108.87 88.064 108.87 87.88C108.87 87.696 108.866 87.544 108.858 87.424C108.834 86.816 108.674 86.356 108.378 86.044C108.082 85.724 107.686 85.564 107.19 85.564C106.694 85.564 106.294 85.724 105.99 86.044C105.694 86.356 105.538 86.816 105.522 87.424C105.514 87.544 105.51 87.696 105.51 87.88C105.51 88.064 105.514 88.216 105.522 88.336C105.538 88.944 105.694 89.408 105.99 89.728C106.294 90.04 106.694 90.196 107.19 90.196ZM111.801 91C111.721 91 111.653 90.976 111.597 90.928C111.549 90.872 111.525 90.804 111.525 90.724V85.036C111.525 84.956 111.549 84.892 111.597 84.844C111.653 84.788 111.721 84.76 111.801 84.76H112.365C112.445 84.76 112.509 84.788 112.557 84.844C112.613 84.892 112.641 84.956 112.641 85.036V85.564C112.849 85.292 113.109 85.072 113.421 84.904C113.741 84.728 114.149 84.64 114.645 84.64C115.165 84.64 115.605 84.756 115.965 84.988C116.333 85.212 116.609 85.528 116.793 85.936C116.977 86.336 117.069 86.804 117.069 87.34V90.724C117.069 90.804 117.045 90.872 116.997 90.928C116.949 90.976 116.885 91 116.805 91H116.205C116.125 91 116.057 90.976 116.001 90.928C115.953 90.872 115.929 90.804 115.929 90.724V87.4C115.929 86.84 115.793 86.404 115.521 86.092C115.249 85.772 114.849 85.612 114.321 85.612C113.825 85.612 113.425 85.772 113.121 86.092C112.825 86.404 112.677 86.84 112.677 87.4V90.724C112.677 90.804 112.649 90.872 112.593 90.928C112.545 90.976 112.481 91 112.401 91H111.801ZM121.358 91.12C120.75 91.12 120.242 91.004 119.834 90.772C119.426 90.54 119.114 90.22 118.898 89.812C118.682 89.396 118.562 88.924 118.538 88.396C118.53 88.26 118.526 88.088 118.526 87.88C118.526 87.664 118.53 87.492 118.538 87.364C118.562 86.828 118.682 86.356 118.898 85.948C119.122 85.54 119.438 85.22 119.846 84.988C120.254 84.756 120.758 84.64 121.358 84.64C121.958 84.64 122.462 84.756 122.87 84.988C123.278 85.22 123.59 85.54 123.806 85.948C124.03 86.356 124.154 86.828 124.178 87.364C124.186 87.492 124.19 87.664 124.19 87.88C124.19 88.088 124.186 88.26 124.178 88.396C124.154 88.924 124.034 89.396 123.818 89.812C123.602 90.22 123.29 90.54 122.882 90.772C122.474 91.004 121.966 91.12 121.358 91.12ZM121.358 90.196C121.854 90.196 122.25 90.04 122.546 89.728C122.842 89.408 123.002 88.944 123.026 88.336C123.034 88.216 123.038 88.064 123.038 87.88C123.038 87.696 123.034 87.544 123.026 87.424C123.002 86.816 122.842 86.356 122.546 86.044C122.25 85.724 121.854 85.564 121.358 85.564C120.862 85.564 120.462 85.724 120.158 86.044C119.862 86.356 119.706 86.816 119.69 87.424C119.682 87.544 119.678 87.696 119.678 87.88C119.678 88.064 119.682 88.216 119.69 88.336C119.706 88.944 119.862 89.408 120.158 89.728C120.462 90.04 120.862 90.196 121.358 90.196ZM127.853 91.12C127.405 91.12 127.021 91.064 126.701 90.952C126.381 90.84 126.121 90.704 125.921 90.544C125.721 90.384 125.569 90.224 125.465 90.064C125.369 89.904 125.317 89.776 125.309 89.68C125.301 89.592 125.329 89.524 125.393 89.476C125.457 89.428 125.521 89.404 125.585 89.404H126.113C126.161 89.404 126.197 89.412 126.221 89.428C126.253 89.436 126.293 89.468 126.341 89.524C126.445 89.636 126.561 89.748 126.689 89.86C126.817 89.972 126.973 90.064 127.157 90.136C127.349 90.208 127.585 90.244 127.865 90.244C128.273 90.244 128.609 90.168 128.873 90.016C129.137 89.856 129.269 89.624 129.269 89.32C129.269 89.12 129.213 88.96 129.101 88.84C128.997 88.72 128.805 88.612 128.525 88.516C128.253 88.42 127.877 88.32 127.397 88.216C126.917 88.104 126.537 87.968 126.257 87.808C125.977 87.64 125.777 87.444 125.657 87.22C125.537 86.988 125.477 86.728 125.477 86.44C125.477 86.144 125.565 85.86 125.741 85.588C125.917 85.308 126.173 85.08 126.509 84.904C126.853 84.728 127.281 84.64 127.793 84.64C128.209 84.64 128.565 84.692 128.861 84.796C129.157 84.9 129.401 85.032 129.593 85.192C129.785 85.344 129.929 85.496 130.025 85.648C130.121 85.8 130.173 85.928 130.181 86.032C130.189 86.112 130.165 86.18 130.109 86.236C130.053 86.284 129.989 86.308 129.917 86.308H129.413C129.357 86.308 129.309 86.296 129.269 86.272C129.237 86.248 129.205 86.22 129.173 86.188C129.093 86.084 128.997 85.98 128.885 85.876C128.781 85.772 128.641 85.688 128.465 85.624C128.297 85.552 128.073 85.516 127.793 85.516C127.393 85.516 127.093 85.6 126.893 85.768C126.693 85.936 126.593 86.148 126.593 86.404C126.593 86.556 126.637 86.692 126.725 86.812C126.813 86.932 126.981 87.04 127.229 87.136C127.477 87.232 127.845 87.336 128.333 87.448C128.861 87.552 129.277 87.692 129.581 87.868C129.885 88.044 130.101 88.248 130.229 88.48C130.357 88.712 130.421 88.98 130.421 89.284C130.421 89.62 130.321 89.928 130.121 90.208C129.929 90.488 129.641 90.712 129.257 90.88C128.881 91.04 128.413 91.12 127.853 91.12ZM132.242 91C132.154 91 132.086 90.976 132.038 90.928C131.99 90.872 131.966 90.804 131.966 90.724V82.888C131.966 82.8 131.99 82.732 132.038 82.684C132.086 82.628 132.154 82.6 132.242 82.6H135.29C135.882 82.6 136.394 82.696 136.826 82.888C137.266 83.08 137.606 83.368 137.846 83.752C138.086 84.128 138.206 84.6 138.206 85.168C138.206 85.736 138.086 86.208 137.846 86.584C137.606 86.96 137.266 87.244 136.826 87.436C136.394 87.628 135.882 87.724 135.29 87.724H133.166V90.724C133.166 90.804 133.138 90.872 133.082 90.928C133.034 90.976 132.966 91 132.878 91H132.242ZM133.154 86.716H135.23C135.822 86.716 136.266 86.584 136.562 86.32C136.858 86.056 137.006 85.672 137.006 85.168C137.006 84.672 136.862 84.288 136.574 84.016C136.286 83.744 135.838 83.608 135.23 83.608H133.154V86.716ZM141.983 91.12C141.375 91.12 140.867 91.004 140.459 90.772C140.051 90.54 139.739 90.22 139.523 89.812C139.307 89.396 139.187 88.924 139.163 88.396C139.155 88.26 139.151 88.088 139.151 87.88C139.151 87.664 139.155 87.492 139.163 87.364C139.187 86.828 139.307 86.356 139.523 85.948C139.747 85.54 140.063 85.22 140.471 84.988C140.879 84.756 141.383 84.64 141.983 84.64C142.583 84.64 143.087 84.756 143.495 84.988C143.903 85.22 144.215 85.54 144.431 85.948C144.655 86.356 144.779 86.828 144.803 87.364C144.811 87.492 144.815 87.664 144.815 87.88C144.815 88.088 144.811 88.26 144.803 88.396C144.779 88.924 144.659 89.396 144.443 89.812C144.227 90.22 143.915 90.54 143.507 90.772C143.099 91.004 142.591 91.12 141.983 91.12ZM141.983 90.196C142.479 90.196 142.875 90.04 143.171 89.728C143.467 89.408 143.627 88.944 143.651 88.336C143.659 88.216 143.663 88.064 143.663 87.88C143.663 87.696 143.659 87.544 143.651 87.424C143.627 86.816 143.467 86.356 143.171 86.044C142.875 85.724 142.479 85.564 141.983 85.564C141.487 85.564 141.087 85.724 140.783 86.044C140.487 86.356 140.331 86.816 140.315 87.424C140.307 87.544 140.303 87.696 140.303 87.88C140.303 88.064 140.307 88.216 140.315 88.336C140.331 88.944 140.487 89.408 140.783 89.728C141.087 90.04 141.487 90.196 141.983 90.196ZM147.81 91C147.706 91 147.626 90.976 147.57 90.928C147.514 90.872 147.466 90.796 147.426 90.7L145.722 85.132C145.706 85.092 145.698 85.052 145.698 85.012C145.698 84.94 145.722 84.88 145.77 84.832C145.826 84.784 145.886 84.76 145.95 84.76H146.478C146.566 84.76 146.634 84.784 146.682 84.832C146.73 84.88 146.762 84.924 146.778 84.964L148.11 89.488L149.538 85.012C149.554 84.956 149.586 84.9 149.634 84.844C149.69 84.788 149.77 84.76 149.874 84.76H150.282C150.386 84.76 150.466 84.788 150.522 84.844C150.578 84.9 150.61 84.956 150.618 85.012L152.046 89.488L153.378 84.964C153.386 84.924 153.414 84.88 153.462 84.832C153.51 84.784 153.578 84.76 153.666 84.76H154.194C154.266 84.76 154.326 84.784 154.374 84.832C154.422 84.88 154.446 84.94 154.446 85.012C154.446 85.052 154.438 85.092 154.422 85.132L152.718 90.7C152.694 90.796 152.65 90.872 152.586 90.928C152.53 90.976 152.446 91 152.334 91H151.866C151.762 91 151.674 90.976 151.602 90.928C151.538 90.872 151.494 90.796 151.47 90.7L150.078 86.404L148.686 90.7C148.654 90.796 148.606 90.872 148.542 90.928C148.478 90.976 148.39 91 148.278 91H147.81ZM158.095 91.12C157.271 91.12 156.615 90.868 156.127 90.364C155.639 89.852 155.371 89.156 155.323 88.276C155.315 88.172 155.311 88.04 155.311 87.88C155.311 87.712 155.315 87.576 155.323 87.472C155.355 86.904 155.487 86.408 155.719 85.984C155.951 85.552 156.267 85.22 156.667 84.988C157.075 84.756 157.551 84.64 158.095 84.64C158.703 84.64 159.211 84.768 159.619 85.024C160.035 85.28 160.351 85.644 160.567 86.116C160.783 86.588 160.891 87.14 160.891 87.772V87.976C160.891 88.064 160.863 88.132 160.807 88.18C160.759 88.228 160.695 88.252 160.615 88.252H156.463C156.463 88.26 156.463 88.276 156.463 88.3C156.463 88.324 156.463 88.344 156.463 88.36C156.479 88.688 156.551 88.996 156.679 89.284C156.807 89.564 156.991 89.792 157.231 89.968C157.471 90.144 157.759 90.232 158.095 90.232C158.383 90.232 158.623 90.188 158.815 90.1C159.007 90.012 159.163 89.916 159.283 89.812C159.403 89.7 159.483 89.616 159.523 89.56C159.595 89.456 159.651 89.396 159.691 89.38C159.731 89.356 159.795 89.344 159.883 89.344H160.459C160.539 89.344 160.603 89.368 160.651 89.416C160.707 89.456 160.731 89.516 160.723 89.596C160.715 89.716 160.651 89.864 160.531 90.04C160.411 90.208 160.239 90.376 160.015 90.544C159.791 90.712 159.519 90.852 159.199 90.964C158.879 91.068 158.511 91.12 158.095 91.12ZM156.463 87.424H159.751V87.388C159.751 87.028 159.683 86.708 159.547 86.428C159.419 86.148 159.231 85.928 158.983 85.768C158.735 85.6 158.439 85.516 158.095 85.516C157.751 85.516 157.455 85.6 157.207 85.768C156.967 85.928 156.783 86.148 156.655 86.428C156.527 86.708 156.463 87.028 156.463 87.388V87.424ZM162.602 91C162.522 91 162.454 90.976 162.398 90.928C162.35 90.872 162.326 90.804 162.326 90.724V85.048C162.326 84.968 162.35 84.9 162.398 84.844C162.454 84.788 162.522 84.76 162.602 84.76H163.154C163.234 84.76 163.302 84.788 163.358 84.844C163.414 84.9 163.442 84.968 163.442 85.048V85.576C163.602 85.304 163.822 85.1 164.102 84.964C164.382 84.828 164.718 84.76 165.11 84.76H165.59C165.67 84.76 165.734 84.788 165.782 84.844C165.83 84.892 165.854 84.956 165.854 85.036V85.528C165.854 85.608 165.83 85.672 165.782 85.72C165.734 85.768 165.67 85.792 165.59 85.792H164.87C164.438 85.792 164.098 85.92 163.85 86.176C163.602 86.424 163.478 86.764 163.478 87.196V90.724C163.478 90.804 163.45 90.872 163.394 90.928C163.338 90.976 163.27 91 163.19 91H162.602Z" fill="url(#paint1_linear_1_2)"/>
<defs>
<linearGradient id="paint0_linear_1_2" x1="123" y1="38" x2="123" y2="74" gradientUnits="userSpaceOnUse">
<stop stop-color="#A8E063"/>
<stop offset="1" stop-color="#56AB2F"/>
</linearGradient>
<linearGradient id="paint1_linear_1_2" x1="125" y1="80" x2="125" y2="94" gradientUnits="userSpaceOnUse">
<stop stop-color="#A8E063"/>
<stop offset="1" stop-color="#56AB2F"/>
</linearGradient>
</defs>
</svg>
